<svg width="64" height="55" viewBox="0 0 64 55" fill="none" xmlns="http://www.w3.org/2000/svg">
<path fill-rule="evenodd" clip-rule="evenodd" d="M31.9419 0.0236895C32.0241 0.0118533 32.1064 0 32.192 0C49.6308 0 63.8182 14.1759 63.8182 31.6006C63.8182 32.6264 63.7677 33.6628 63.6675 34.6814C63.2671 38.7602 59.8361 41.8364 55.6875 41.8364C51.2644 41.8364 47.6662 38.2411 47.6662 33.8219C47.6662 27.8911 46.1302 22.0671 43.2239 16.9406C42.6728 15.9682 43.0151 14.7334 43.9882 14.1828C44.961 13.6325 46.1973 13.9736 46.7484 14.9461C49.9984 20.6798 51.7162 27.1938 51.7162 33.7837C51.7162 36.0098 53.4977 37.7896 55.6875 37.7896C57.7091 37.7896 59.4436 36.2504 59.6366 34.2861C59.7236 33.3984 59.768 32.495 59.768 31.6006C59.768 16.4074 47.3975 4.04674 32.192 4.04674C32.108 4.04674 32.0272 4.03519 31.9465 4.02366C31.9341 4.02188 31.9216 4.02011 31.9092 4.01837C31.8966 4.02012 31.8841 4.02191 31.8715 4.0237C31.7908 4.03522 31.71 4.04674 31.626 4.04674C16.4205 4.04674 4.05002 16.4074 4.05002 31.6006C4.05002 32.495 4.09437 33.3984 4.18139 34.2861C4.37473 36.2504 6.10945 37.7896 8.13084 37.7896C10.3203 37.7896 12.102 36.0098 12.102 33.8219C12.102 27.1942 13.8196 20.6803 17.0701 14.9461C17.6216 13.9736 18.8583 13.6325 19.8304 14.1828C20.8032 14.7334 21.1457 15.9682 20.5945 16.9406C17.688 22.0675 16.152 27.8918 16.152 33.7837C16.152 38.2411 12.5536 41.8364 8.13084 41.8364C3.98229 41.8364 0.551828 38.7604 0.150482 34.6814C0.0502843 33.6628 0 32.6264 0 31.6006C0 14.1759 14.1872 0 31.626 0C31.7116 0 31.7939 0.0118224 31.8761 0.0236432C31.8871 0.0252271 31.8982 0.0268109 31.9092 0.0283663C31.9201 0.0268261 31.931 0.025258 31.9419 0.0236895ZM45.7512 41.8563C45.7512 40.7359 46.6724 39.8278 47.8087 39.8278C48.9453 39.8278 49.8665 40.7359 49.8665 41.8563V44.8438C49.8665 50.2793 45.3809 54.7013 39.8674 54.7013C36.6268 54.7013 33.7429 53.1723 31.9144 50.809C30.0862 53.1723 27.2019 54.7013 23.9611 54.7013C18.448 54.7013 13.9624 50.2793 13.9624 44.8438V41.8563C13.9624 40.7359 14.8836 39.8278 16.0201 39.8278C17.1566 39.8278 18.0778 40.7359 18.0778 41.8563V44.8438C18.0778 48.0423 20.717 50.6441 23.9611 50.6441C27.2053 50.6441 29.8448 48.0423 29.8448 44.8438V39.9357C29.5488 40.1045 29.2685 40.3092 29.0154 40.5586C27.9443 41.6147 26.2068 41.6143 25.1355 40.5586C24.0644 39.5021 24.0644 37.7895 25.1358 36.7336C28.8431 33.079 34.8764 33.0782 38.5837 36.7336C39.6553 37.7895 39.6553 39.5021 38.584 40.5586C38.0482 41.0865 37.3459 41.3506 36.6438 41.3506C35.942 41.3506 35.2395 41.0867 34.7041 40.5586C34.4824 40.34 34.2395 40.156 33.9842 39.9993V44.8438C33.9842 48.0423 36.6234 50.6441 39.8674 50.6441C43.1116 50.6441 45.7512 48.0423 45.7512 44.8438V41.8563ZM23.2708 26.644C25.1068 26.644 26.5953 28.1394 26.5953 29.9841C26.5953 31.829 25.1068 33.3243 23.2708 33.3243C21.4347 33.3243 19.9464 31.829 19.9464 29.9841C19.9464 28.1394 21.4347 26.644 23.2708 26.644ZM39.8931 26.644C41.7292 26.644 43.2176 28.1394 43.2176 29.9841C43.2176 31.829 41.7292 33.3243 39.8931 33.3243C38.057 33.3243 36.5687 31.829 36.5687 29.9841C36.5687 28.1394 38.057 26.644 39.8931 26.644Z" fill="white"/>
</svg>
